<svg viewBox="0 0 24 24" fill="none" xmlns="http://www.w3.org/2000/svg">
    <g clip-path="url(#clip0)">
        <path d="M11.9998 24C18.6272 24 23.9998 18.6274 23.9998 12C23.9998 5.37258 18.6272 0 11.9998 0C5.37234 0 -0.000244141 5.37258 -0.000244141 12C-0.000244141 18.6274 5.37234 24 11.9998 24Z" fill="#F3BA2F"/>
        <path d="M9.08676 10.803L11.9998 7.89L14.9143 10.8045L16.6093 9.1095L11.9998 4.5L7.39176 9.108L9.08676 10.803ZM4.49976 12L6.19476 10.305L7.88976 12L6.19476 13.695L4.49976 12ZM9.08676 13.197L11.9998 16.11L14.9143 13.1955L16.6093 14.8898L11.9998 19.5L7.39176 14.892L7.38951 14.8898L9.08676 13.197ZM16.1098 12L17.8048 10.305L19.4998 12L17.8048 13.695L16.1098 12ZM13.7188 11.9985H13.7203V12L11.9998 13.7205L10.2815 12.003L10.2785 12L10.2815 11.9977L10.5823 11.6962L10.7285 11.55L11.9998 10.2795L13.7195 11.9992L13.7188 11.9985Z" fill="white"/>
    </g>
    <defs>
        <clipPath id="clip0">
            <rect width="24" height="24" fill="white" transform="translate(-0.000244141)"/>
        </clipPath>
    </defs>
</svg>
