<svg viewBox="0 0 24 24" fill="none" xmlns="http://www.w3.org/2000/svg">
    <path d="M12 24C18.6274 24 24 18.6274 24 12C24 5.37258 18.6274 0 12 0C5.37258 0 0 5.37258 0 12C0 18.6274 5.37258 24 12 24Z" fill="#F0B90B"/>
    <path fill-rule="evenodd" clip-rule="evenodd" d="M6.89305 8.95209L12.0051 3.84009L14.0434 5.87843L8.9314 10.9904L6.89305 8.95209ZM6.89664 15.0608L15.0663 6.8914L17.1046 8.92974L8.93498 17.0991L6.89664 15.0608ZM18.1215 9.95237L9.95209 18.1217L11.9904 20.1601L20.1598 11.9904L18.1215 9.95209V9.95237ZM3.84009 12.0042L5.87843 9.96588L7.91678 12.0042L5.87843 14.0426L3.84009 12.0042Z" fill="#FFFDFA"/>
</svg>
